<?xml version="1.0" encoding="UTF-8" standalone="no"?>
<!-- Created with Inkscape (http://www.inkscape.org/) -->

<svg
   xmlns:dc="http://purl.org/dc/elements/1.1/"
   xmlns:cc="http://creativecommons.org/ns#"
   xmlns:rdf="http://www.w3.org/1999/02/22-rdf-syntax-ns#"
   xmlns:svg="http://www.w3.org/2000/svg"
   xmlns="http://www.w3.org/2000/svg"
   xmlns:xlink="http://www.w3.org/1999/xlink"
   xmlns:sodipodi="http://sodipodi.sourceforge.net/DTD/sodipodi-0.dtd"
   xmlns:inkscape="http://www.inkscape.org/namespaces/inkscape"
   width="151.10361mm"
   height="42.072975mm"
   id="svg2"
   sodipodi:version="0.32"
   inkscape:version="0.92.3 (2405546, 2018-03-11)"
   sodipodi:docname="logonuevo.svg"
   inkscape:output_extension="org.inkscape.output.svg.inkscape"
   inkscape:export-filename="/home/ska/Desktop/lupinlogos.png"
   inkscape:export-xdpi="90"
   inkscape:export-ydpi="90"
   version="1.1">
  <defs
     id="defs4">
    <linearGradient
       inkscape:collect="always"
       id="linearGradient831">
      <stop
         style="stop-color:#000000;stop-opacity:1;"
         offset="0"
         id="stop827" />
      <stop
         style="stop-color:#000000;stop-opacity:0;"
         offset="1"
         id="stop829" />
    </linearGradient>
    <linearGradient
       id="linearGradient4275">
      <stop
         id="stop4277"
         offset="0"
         style="stop-color:#2c49a6;stop-opacity:1;" />
      <stop
         id="stop4279"
         offset="1"
         style="stop-color:#71ff32;stop-opacity:0;" />
    </linearGradient>
    <radialGradient
       inkscape:collect="always"
       xlink:href="#linearGradient831"
       id="radialGradient833"
       cx="615.47183"
       cy="246.85821"
       fx="615.47183"
       fy="246.85821"
       r="49.505419"
       gradientTransform="matrix(1,0,0,0.66463,0,82.788839)"
       gradientUnits="userSpaceOnUse" />
  </defs>
  <sodipodi:namedview
     id="base"
     pagecolor="#b9b2b9"
     bordercolor="#666666"
     borderopacity="1.0"
     inkscape:pageopacity="0"
     inkscape:pageshadow="2"
     inkscape:zoom="1.5636471"
     inkscape:cx="280.68541"
     inkscape:cy="26.377425"
     inkscape:document-units="px"
     inkscape:current-layer="layer1"
     inkscape:window-width="1918"
     inkscape:window-height="1027"
     inkscape:window-x="1920"
     inkscape:window-y="28"
     showguides="true"
     inkscape:guide-bbox="true"
     showgrid="false"
     fit-margin-top="0"
     fit-margin-left="0"
     fit-margin-right="0.3"
     fit-margin-bottom="0"
     inkscape:window-maximized="0"
     inkscape:pagecheckerboard="false"
     objecttolerance="1">
    <sodipodi:guide
       position="-400.59768,-168.45144"
       orientation="1,0"
       id="guide35"
       inkscape:locked="false" />
  </sodipodi:namedview>
  <metadata
     id="metadata7">
    <rdf:RDF>
      <cc:Work
         rdf:about="">
        <dc:format>image/svg+xml</dc:format>
        <dc:type
           rdf:resource="http://purl.org/dc/dcmitype/StillImage" />
        <dc:title></dc:title>
      </cc:Work>
    </rdf:RDF>
  </metadata>
  <g
     inkscape:label="Capa 1"
     inkscape:groupmode="layer"
     id="layer1"
     transform="translate(-95.010884,-120.74503)">
    <path
       id="rect109"
       style="fill:#ffffff"
       d="m 120.31415,142.04158 c -1.52413,-0.0196 -3.08264,-0.0236 -4.77929,0.004 -0.63442,0.009 -1.83603,0.0431 -1.90039,0.10742 -0.93702,0.93647 -2.09027,21.26815 -1.2461,21.96875 0.4444,0.36882 2.3656,0.78252 4.26953,0.91797 l 3.46094,0.2461 -0.0527,8.11133 c -0.0775,11.84082 -1.23892,67.45939 -1.54101,73.7871 -0.142,2.97463 -0.0753,6.36067 0.14843,7.5254 l 0.40625,2.11914 38.76563,0.19921 38.17578,0.19727 c 0.20984,-0.0931 0.3882,-0.16823 0.59375,-0.25781 l 0.20898,-10.90821 c 0.1181,-6.14306 0.0337,-11.64042 -0.1875,-12.21679 -0.28842,-0.75158 -1.33218,-0.93149 -3.6914,-0.63281 -1.80919,0.22883 -11.19768,0.62618 -20.86524,0.88281 l -17.57812,0.46679 -0.0957,-7.20898 c -0.28974,-21.94852 0.27176,-50.013 1.25781,-62.83789 0.95804,-12.46038 1.24677,-15.72638 1.60938,-18.19922 l 0.40429,-2.74609 -21.78906,-0.94141 c -6.74049,-0.29113 -11.00183,-0.52517 -15.57422,-0.58398 z m 357.28907,0.83203 c -0.94115,0.0604 -1.89873,0.17857 -2.87891,0.39844 -1.13564,0.24533 -2.05236,0.93541 -2.85547,1.04101 -3.57536,1.78124 -6.72077,5.17378 -7.62695,8.53906 -1.97629,7.3394 1.16046,15.27316 6.88086,17.6875 5.7204,2.41435 7.55366,2.54865 11.87305,1.00586 6.69227,-2.39035 11.30306,-9.13485 10.45507,-15.29492 -1.06873,-7.76603 -6.44593,-12.82929 -13.4707,-13.37305 -0.78689,0.0442 -1.58168,0.0279 -2.37695,-0.004 z m -86.81055,1.50586 c -8.17672,-0.0601 -19.05469,0.22119 -26.9082,0.77539 -3.61205,0.25488 -10.56623,1.14122 -15.45313,1.9707 -4.8869,0.82947 -10.1364,1.69732 -11.66601,1.92773 -2.68806,0.40522 -2.83918,0.60642 -4.53516,6.00782 -0.96508,3.07362 -2.38493,7.32643 -3.15625,9.45117 -1.41481,3.89731 -3.03501,9.55281 -3.04297,10.62305 -0.007,0.91158 3.2302,0.68051 7.38868,-0.52735 2.09557,-0.60873 5.02183,-1.21663 6.5039,-1.35156 2.6745,-0.24348 2.69525,-0.22171 2.66016,2.8457 -0.0377,3.29645 -0.93981,13.40619 -1.48242,16.61133 -0.17985,1.06237 -0.52801,5.75526 -0.77149,10.42969 -0.24349,4.67442 -0.86192,11.80283 -1.375,15.83984 -0.51309,4.037 -0.93772,10.28394 -0.94336,13.88281 l -0.01,6.54493 3.17968,0.54492 c 1.74866,0.29978 8.00585,1.13925 13.90625,1.86523 5.90039,0.72598 12.29281,1.58205 14.20508,1.90235 1.91226,0.32031 4.34588,0.53476 5.4082,0.47656 l 1.93165,-0.10547 v -10.21094 -10.21289 l 10.43164,-0.34765 c 20.63012,-0.69041 34.42022,-7.44992 45.74609,-17.80078 8.18521,-7.4806 10.30304,-25.217 4.95508,-37.54883 -7.37606,-17.00842 -20.29195,-20.34567 -36.4082,-23.10352 -1.72542,-0.29525 -5.65842,-0.45417 -10.56446,-0.49023 z m 127.76172,10.47461 -1.32812,7.37304 c -0.73006,4.0545 -1.12738,7.56985 -0.88477,7.8125 0.24268,0.24264 3.79472,0.69383 7.89453,1.00391 5.06043,0.38274 7.6785,0.91375 8.15234,1.65234 0.75379,1.17463 0.44119,5.75827 -1.25976,18.47266 -0.59693,4.46195 -1.64181,14.18382 -2.32227,21.60547 -0.68046,7.42165 -1.35077,13.68079 -1.49023,13.9082 -0.13954,0.22741 -0.48082,3.54266 -0.75781,7.36719 -0.27699,3.82453 -0.69781,7.96298 -0.93555,9.19726 l -0.43359,2.24414 5.30273,-0.44531 c 2.91661,-0.24517 8.95407,-1.022 13.41602,-1.72656 19.7831,-3.12382 26.69665,-4.37252 27.25195,-4.92383 0.32744,-0.32505 0.0761,-8.56282 -0.55664,-18.30664 -1.32429,-20.39326 -1.66126,-37.0332 -0.75195,-37.0332 0.34483,0 3.17538,3.30283 6.29101,7.33984 3.11557,4.037 6.26357,8.08314 6.99609,8.99024 0.7328,0.90709 1.95883,2.51503 2.72266,3.57422 0.76382,1.05898 3.82486,5.01061 6.80274,8.78124 2.73021,2.97391 4.03395,5.13106 6.72265,8.60157 0.72017,0.96059 2.17982,2.78291 3.24219,4.04883 1.06236,1.26592 2.62666,3.20178 3.47656,4.30273 0.8499,1.10095 1.89341,2.40919 2.31836,2.90625 0.42494,0.49707 1.98924,2.55419 3.47656,4.57227 1.48732,2.0181 3.4001,3.85556 4.25,4.08203 0.84989,0.22646 9.71491,0.31318 19.70118,0.19336 l 18.15625,-0.2168 -0.002,-20.86133 c -0.002,-19.09185 -0.54911,-33.62169 -1.52734,-40.56445 -0.20954,-1.48732 -0.7346,-6.18021 -1.16797,-10.42969 -0.57993,-5.68672 -1.13162,-7.98057 -2.08984,-8.69141 -1.18553,-0.8795 -7.17514,-1.18491 -25.92383,-1.32226 l -2.98438,-0.0234 c -0.29116,0.25399 -0.58341,0.39838 -1.11523,0.45313 l -0.88086,9.58398 c -0.50846,5.52432 -1.15428,15.17344 -1.43359,21.44141 -0.27938,6.26798 -0.73134,11.37423 -1.00586,11.34765 -0.27459,-0.0266 -2.58508,-2.48607 -5.13477,-5.46484 -2.54968,-2.97877 -6.31918,-7.21575 -8.375,-9.41602 -2.05582,-2.20027 -4.66363,-5.22702 -5.79492,-6.72656 -1.13129,-1.49953 -4.02133,-4.80237 -6.42383,-7.33984 -2.4025,-2.53747 -6.24978,-6.87267 -8.54883,-9.63281 -3.8484,-4.62032 -4.48299,-5.06111 -7.99414,-5.55274 -5.21488,-0.73019 -36.16807,-2.17773 -46.57226,-2.17773 z m -286.60742,4.04297 c -0.56808,0.008 -1.19218,0.0363 -1.87695,0.084 -4.58175,0.15582 -12.45813,2.61498 -26.11915,4.23047 l -4.25,0.53515 0.0137,7.33594 c 0.0203,9.99325 1.97084,39.98073 2.23828,42.10547 0.8987,7.14014 2.02672,11.61812 3.80078,15.0918 6.57614,12.87639 15.06515,19.60516 29.875,23.68359 5.93476,1.63435 7.79402,1.78151 19.31445,1.51758 9.31438,-0.21339 13.78879,-0.64482 16.61133,-1.60156 3.38009,-1.14573 9.70085,-4.09699 15.4707,-7.22461 2.64047,-1.43129 9.7028,-8.56549 12.04688,-12.16992 5.12722,-7.88401 8.53528,-17.18086 9.91406,-27.03907 0.88923,-6.35798 0.30092,-43.38578 -0.69922,-44.0039 -0.27526,-0.17012 -2.56887,0.16761 -5.0957,0.75195 -2.52682,0.58433 -9.28664,1.97253 -15.02344,3.08398 -16.52022,3.20063 -16.06223,2.98909 -16.58203,7.65039 -0.24204,2.17062 -0.79021,10.53979 -1.21875,18.59766 -0.8942,16.81359 -1.9394,24.6115 -3.67187,27.41797 -4.87999,7.90521 -12.03696,10.49986 -19.29297,6.99414 -3.22453,-1.55793 -6.54717,-5.21012 -7.44727,-8.18359 -0.95002,-3.13839 -2.78848,-26.39511 -3.26172,-41.26563 -0.26991,-13.21981 3.77508,-17.7109 -4.74609,-17.59179 z m 152.91016,7.59374 c 5.14505,0.0395 12.0998,1.00424 15.8496,2.375 5.53733,2.02428 8.33135,4.82648 9.82422,9.85352 1.23805,4.16896 1.07471,5.75911 -1.09179,10.60156 -3.11691,6.96677 -12.8271,11.87732 -25.57422,12.92969 l -4.35938,0.35938 -0.45703,-5.52735 c -0.25078,-3.04017 -0.68114,-10.97934 -0.95703,-17.64258 l -0.50195,-12.11523 2.91211,-0.54688 c 1.12722,-0.21146 2.64045,-0.30001 4.35547,-0.28711 z m 124.31835,3.19922 c -0.0102,0.0517 -0.0261,0.10268 -0.0371,0.1543 0.0134,0.007 0.0277,0.014 0.041,0.0215 -10e-4,-0.0607 -0.002,-0.11114 -0.004,-0.17578 z m -112.00976,8.49219 c 0.0636,-0.16033 -0.18488,0.29187 -0.27735,0.4375 -0.0111,0.073 -0.0221,0.14578 -0.0332,0.21875 0.10824,-0.21716 0.22134,-0.43157 0.31055,-0.65625 z m 213.03906,6.13281 c -0.0156,0.0271 -0.0292,0.0488 -0.0449,0.0762 -0.0102,0.0278 -0.0264,0.0453 -0.0371,0.0723 0.0145,0.003 0.0234,0.006 0.0391,0.01 0.0153,-0.0334 0.028,-0.11715 0.043,-0.15821 z m -291.23437,2.57227 c -0.24338,0.0237 -0.46386,0.0568 -0.64258,0.10742 0.17911,-0.034 0.43141,-0.0723 0.64258,-0.10742 z m 173.11132,3.50781 c -0.33632,0 -1.59087,0.37912 -2.7871,0.8418 -4.68008,1.81011 -11.74803,2.45416 -16.11719,1.46875 -2.14209,-0.48311 -2.83451,-0.34522 -3.35547,0.66601 -0.64677,1.25545 -1.1844,7.75663 -2.02344,24.45313 -0.23489,4.67442 -0.85566,18.1843 -0.53711,18.69141 0.64533,1.02733 28.45574,2.62253 28.45313,0.90625 -10e-4,-0.95613 -0.0422,-6.42518 -0.44141,-11.09961 -0.39916,-4.67442 -0.91303,-11.45436 -1.14258,-15.06641 -1.04299,-16.41238 -1.4793,-20.86133 -2.04883,-20.86133 z"
       inkscape:connector-curvature="0" />
    <path
       style="fill:#d40000;fill-opacity:1;stroke:#000000;stroke-width:1.39073777;stroke-miterlimit:4;stroke-dasharray:none;stroke-opacity:1"
       d="m 154.8747,136.31892 c 0.61518,0 0.61518,0 0,0 z m -14.50586,12.26953 c -2.07074,-0.003 -4.71417,0.0249 -8.10351,0.0723 l -15.0625,0.21093 v 7.33985 7.33984 l 3.71093,0.23633 3.71289,0.23828 -0.55078,44.45508 c -0.38498,31.12175 -0.30353,44.60597 0.27149,44.96094 0.45175,0.27889 12.58865,0.62652 26.9707,0.77148 14.38205,0.14495 38.20863,0.29529 38.70899,-0.20508 0.23927,-0.23927 0.78767,-14.8629 -0.64844,-15.75976 -0.86759,-0.54182 -26.21158,0.96957 -32.9043,0.79101 -3.0474,-0.0813 -6.4857,-0.50817 -7.64062,-0.94726 l -2.09961,-0.79883 0.44921,-28.37109 c 0.24779,-15.60488 0.6203,-29.41657 0.82618,-30.69141 0.20587,-1.27484 0.57822,-7.89252 0.82812,-14.70703 0.34439,-9.39089 0.21618,-12.7156 -0.52734,-13.73242 -0.66214,-0.90552 -1.72917,-1.19463 -7.94141,-1.20313 z m 245.40039,2.0918 c -12.54796,0.11526 -25.56711,1.05234 -32.91406,2.42187 -4.24947,0.79213 -9.14209,1.66256 -10.87304,1.9336 -2.90701,0.45518 -3.24716,0.76869 -4.44727,4.11718 -0.7146,1.99383 -1.29692,4.36529 -1.29492,5.26954 0.002,0.90423 -0.53885,2.94025 -1.20117,4.52539 -0.66231,1.58515 -1.03006,3.05587 -0.81836,3.26757 0.31518,0.31518 5.94157,-0.69342 13.80468,-2.47461 1.59502,-0.36131 1.75472,2.32246 0.61719,10.42188 -0.70935,5.05071 -0.92728,7.56719 -2.375,27.42773 -0.91845,12.59977 -1.39661,16.85901 -2.26367,20.18555 -0.91964,3.52827 -0.15487,6.4277 1.79687,6.81641 4.55723,0.90763 15.87716,2.76961 18.25782,3.0039 1.48731,0.14638 3.32309,0.32263 4.08007,0.39063 1.94306,0.17456 2.25685,-1.16122 2.37891,-10.1211 l 0.10742,-7.9121 5.40821,-0.11914 c 10.38476,-0.22672 18.06067,-0.73405 23.64453,-2.54493 20.71414,-6.7177 27.45193,-15.54573 31.26562,-21.99023 2.6604,-4.49564 4.67043,-17.44074 -4.03711,-29.81641 -7.6677,-10.89779 -16.3494,-14.59909 -35.80664,-14.80078 -1.75541,-0.0182 -3.53751,-0.0184 -5.33008,-0.002 z m 138.57422,8.5293 c -0.78692,-0.0223 -1.25892,-3e-4 -1.30859,0.0801 -0.30055,0.48627 -0.53361,6.52169 -0.67578,7.26367 -0.37155,1.94026 0.02,1.00189 7.61523,2.24219 3.85376,0.62933 7.51776,0.19164 7.6875,2.37305 0.0186,0.23928 -0.21669,6.86935 -0.85937,14.88867 -1.04336,13.01994 -1.9158,25.35887 -3.31836,46.94922 l -0.44727,6.87305 1.85156,-0.45313 c 1.01857,-0.24979 4.28709,-0.86661 7.26172,-1.36914 9.34128,-1.57808 19.85563,-3.70521 20.24805,-4.09765 0.2073,-0.20734 0.53694,-9.70268 0.73242,-21.09961 0.19548,-11.39693 0.46984,-23.67702 0.60938,-27.28907 0.13962,-3.61206 0.30087,-7.78416 0.35937,-9.27148 l 0.10547,-2.70313 3.54492,3.86329 c 4.67041,5.09211 5.98825,6.58454 12.27539,13.90624 2.91923,3.39958 5.69815,6.52818 6.17578,6.95313 0.47765,0.42494 3.45171,3.72443 6.60938,7.33203 3.15775,3.60761 6.11405,6.91045 6.56836,7.33984 0.45438,0.4294 3.40874,3.72554 6.56641,7.32422 3.15775,3.59868 6.87087,7.63817 8.25195,8.97657 1.38108,1.33839 2.51172,2.82758 2.51172,3.30859 0,0.59867 2.98571,0.90164 9.46484,0.96094 5.20561,0.0477 11.64669,0.1598 14.3125,0.25 3.25062,0.10996 5.12627,-0.17183 5.69531,-0.85742 1.03556,-1.24779 0.0233,-44.95005 -1.30273,-56.25782 -0.48553,-4.14071 -2.15458,-11.20484 -2.65625,-11.24414 -10.08323,-0.79095 -18.2458,0.21862 -18.75195,2.32032 -0.15723,0.65305 -0.36399,5.18536 -0.45899,10.07226 -0.095,4.88689 -0.68321,14.54076 -1.30664,21.45313 -0.62352,6.91239 -1.13281,12.75833 -1.13281,12.99023 0,2.20613 -18.77761,-16.10676 -24.6211,-24.01172 -1.25653,-1.69979 -4.08706,-5.00262 -6.28906,-7.33984 -2.20201,-2.33721 -5.62301,-6.12845 -7.60156,-8.42383 -8.25017,-9.57121 -7.78901,-9.22942 -13.64062,-10.14063 -2.97464,-0.46321 -11.98527,-0.8081 -12.94141,-0.8457 -0.95613,-0.0376 -2.60755,0.007 -3.66992,0.0996 -0.92958,0.081 -21.9564,-2.26017 -27.46485,-2.41601 z m -137.35937,3.65429 h 6.26367 c 7.756,0 14,6.244 14,14 v 10.95508 c 0,7.756 -6.244,14 -14,14 h -6.26367 c -7.756,0 -14,-6.244 -14,-14 v -10.95508 c 0,-7.756 6.244,-14 14,-14 z m -157.27149,6.48242 -11.05664,0.0234 c -8.30289,0.0185 -11.41487,0.29684 -12.49804,1.11719 -1.37604,1.04216 -1.40151,1.76038 -0.53907,15.62109 1.83811,29.54129 3.50837,37.77324 9.29297,45.82031 6.03008,8.38857 18.58586,15.02748 30.54688,16.1504 24.22904,2.27468 41.54157,-5.32555 50.875,-22.33594 4.9767,-9.07013 5.52734,-12.54769 5.52734,-34.91797 0,-14.32829 -0.25606,-20.11356 -0.91992,-20.77734 -0.92191,-0.92179 -4.09499,-0.30369 -18.50195,3.5957 -4.53845,1.22837 -4.76197,1.4026 -5.20703,4.09375 -0.25576,1.54645 -0.47529,7.15885 -0.48829,12.4707 -0.036,14.75433 -1.70088,25.44539 -4.98828,32.03906 -3.29668,6.61228 -3.86443,7.3282 -7.65625,9.64454 -4.08594,2.496 -12.95686,3.1142 -17.85351,1.24414 -4.83194,-1.84533 -9.77666,-7.56774 -11.84571,-13.70899 -2.39337,-7.10382 -6.0491,-41.43861 -5.07226,-47.63672 z m 255.61328,28.12305 c -3.96749,0.0303 -11.03349,1.17098 -11.6914,2.20703 -0.33605,0.52919 -0.61891,4.08953 -0.62891,7.91406 -0.01,3.82453 -0.24093,11.35654 -0.51172,16.73633 l -0.49218,9.78125 4.55468,0.49805 c 2.50518,0.27409 13.33056,1.13283 13.57032,0.41602 0.14165,-0.42348 -0.003,-6.24702 -0.32032,-12.94141 -0.31751,-6.69437 -0.68095,-14.68972 -0.80664,-17.76758 -0.12568,-3.07787 -0.61704,-5.98423 -1.09179,-6.45898 -0.28145,-0.28145 -1.25954,-0.39486 -2.58204,-0.38477 z"
       id="path4213"
       inkscape:connector-curvature="0" />
    <path
       style="fill:#ffffff;stroke:#000000;stroke-width:1.60664845;stroke-miterlimit:4;stroke-dasharray:none;stroke-opacity:1"
       d="m 390.43916,160.28962 c -5.3202,-0.21122 -11.21148,0.58153 -17.45508,2.57422 l -1,47.26563 c 24.6457,-0.65412 44.60609,-7.79088 44.96094,-26.17188 0.26906,-13.37025 -10.54527,-23.0343 -26.50586,-23.66797 z m 1.30078,11.18164 c 1.43345,-0.003 2.78436,0.12114 4.03906,0.36524 1.2547,0.2441 2.41461,0.60815 3.46484,1.08203 1.05024,0.47387 1.99048,1.05745 2.81055,1.74414 0.82007,0.68669 1.51977,1.47683 2.08398,2.35938 0.56422,0.88254 0.99275,1.85848 1.2754,2.91992 0.28264,1.06144 0.41915,2.20826 0.39453,3.43164 -0.0244,1.2614 -0.21777,2.42642 -0.5625,3.5 -0.34473,1.07357 -0.84151,2.0552 -1.47461,2.95117 -0.6331,0.89597 -1.40154,1.70501 -2.29102,2.43359 -0.88947,0.72858 -1.89983,1.37586 -3.01367,1.94727 -1.11384,0.57141 -2.33246,1.06773 -3.63867,1.49219 -1.30622,0.42445 -2.69944,0.77869 -4.16602,1.0664 -2.33077,0.45725 -4.94889,0.6301 -7.58008,0.77539 v 0 c 0,0 0,0 0,0 l -0.83398,-24.45312 c 1.71387,-0.547 3.37052,-0.95046 4.95703,-1.2168 1.58652,-0.26634 3.1017,-0.3958 4.53516,-0.39844 z"
       id="path4221"
       inkscape:connector-curvature="0" />
    <path
       inkscape:export-ydpi="27.906879"
       inkscape:export-xdpi="27.906879"
       inkscape:export-filename="/var/www/mislupins/imagenes/logo2.png"
       sodipodi:nodetypes="csssssscsscssssssccssssssssscccssssssssssscccssssssssscssssssscccssssccccssssssccsscccsssssssssssscscccscccsscccsccccccccsssssssssssscccssssccccssssssssssssssscccsscccccscsssccccsssccssscccsssssssssssssssssscssssssssccczssccsscsssssssssscccssscccsssssssscccsssssssccccccccssssssscsssssssssscssssssssccsssszcssszccsccccc"
       id="path4211"
       d="m 257.71192,125.68768 c 1.25502,-4.21611 1.68537,-4.84057 3.39095,-4.92045 1.07443,-0.0503 2.30118,-0.0122 2.72613,0.0846 0.42495,0.0969 6.4486,0.30749 13.38589,0.46805 6.9373,0.16056 12.96818,0.51128 13.40198,0.77939 0.78634,0.48597 -6.69066,8.04468 -16.81605,16.9998 -15.20037,13.44356 -22.39134,19.59694 -22.91341,19.6072 -0.31871,0.006 -0.57947,-0.3265 -0.57947,-0.73949 0,-1.54417 3.26157,-15.97782 4.28241,-18.95123 0.58358,-1.69979 1.20125,-4.30742 1.37258,-5.79474 m 5.1908,20.81424 c 0.43798,-0.70867 53.70432,-1.33434 54.39968,-0.63898 0.17506,0.17507 0.74308,4.09339 1.26228,8.70738 0.85752,7.62073 1.03797,8.22137 1.97023,6.55797 0.56443,-1.00711 1.38791,-3.22185 1.82996,-4.92164 0.71684,-2.75644 3.47333,-12.016 4.48511,-15.06633 0.21143,-0.63742 0.4966,-1.72 0.63373,-2.40573 0.84895,-4.24535 1.73671,-5.17115 5.79273,-6.04101 4.27607,-1.44657 8.86461,-2.37088 12.65529,-2.64284 3.82453,-0.26447 8.51827,-0.68383 10.43054,-0.9319 11.062,-1.43505 14.40153,-1.701 22.9167,-1.82507 6.40958,-0.0934 25.58192,1.44558 30.78123,2.67426 15.27528,3.60978 23.97729,7.79642 31.049,14.93806 5.45455,5.50849 8.62453,10.38816 10.32876,18.80363 3.00973,14.86198 -1.50681,26.65685 -6.96338,35.16541 -7.04317,10.98257 -30.90596,21.65935 -35.76473,22.92728 -8.56013,2.23385 -20.33811,3.73621 -20.94059,4.10857 -0.3748,0.23163 -0.45092,2.89636 -0.16915,5.9216 0.28175,3.02525 0.70203,7.52339 0.93395,9.99589 l 0.42167,4.49544 -7.2183,-0.48285 c -3.97007,-0.26556 -11.78935,-0.62668 -17.37619,-0.80248 -5.58682,-0.17579 -12.36667,-0.48654 -15.06632,-0.69054 -2.69965,-0.20399 -8.03761,-0.59815 -11.86214,-0.87589 -3.82453,-0.27775 -6.99915,-0.55578 -7.05472,-0.61784 -0.30887,-0.34505 -1.07188,-20.69072 -1.48196,-39.5171 -0.25917,-11.89854 -0.58987,-22.02479 -0.73487,-22.5028 -0.31974,-1.05399 -9.18064,-2.39271 -8.63055,-0.74881 0.13209,0.39475 -0.0815,1.51357 -0.48872,10.31002 -0.25081,5.41808 -0.96659,11.76927 -1.63731,14.10054 -1.20427,4.18572 -2.95722,11.22032 -5.67885,16.9285 -2.37044,4.97161 -4.89509,7.77156 -7.26469,11.09464 -1.76428,2.47418 -4.47774,6.14256 -10.13431,9.75114 -9.64478,7.19842 -23.8269,9.763 -35.5153,11.18341 -14.72959,-0.0369 -26.0314,-1.3005 -39.10843,-8.54736 -4.85924,-3.38982 -13.58556,-10.15002 -14.01839,-9.88252 -0.82416,0.50937 -0.57222,3.3904 1.18161,13.51222 0.55224,3.18711 0.89658,5.90622 0.76521,6.04248 -0.13138,0.13626 -6.64898,1.19534 -8.16409,1.27376 -1.51511,0.0784 -20.84655,1.95033 -28.53686,2.35658 -4.8869,0.25815 -10.276,0.61372 -11.9758,0.79016 -1.69979,0.17644 -4.82895,0.46178 -6.95368,0.63409 -2.12474,0.1723 -29.97814,2.32896 -31.67793,2.43233 -1.69979,0.10337 -5.25445,0.39868 -7.89926,0.65625 -4.17476,0.40656 -4.90968,0.27969 -5.5744,-0.96235 -0.42112,-0.78685 -0.62202,-1.57429 -0.44646,-1.74985 0.17557,-0.17556 0.37874,-4.04581 0.4515,-8.60054 0.0728,-4.55474 0.35148,-8.28136 0.61939,-8.28138 0.26792,-3e-5 0.51546,-3.56379 0.55009,-7.91948 0.0346,-4.35569 0.29488,-11.0486 0.57832,-14.87312 0.28344,-3.82453 0.68668,-10.60438 0.89608,-15.06633 0.20941,-4.46195 0.56391,-10.43906 0.78779,-13.28245 0.22387,-2.8434 0.48766,-9.10172 0.5862,-13.90738 l 0.17917,-8.73756 -12.82967,-0.034 c -3.716755,-0.26607 0.62175,-8.5033 2.34355,-14.64599 2.65976,-9.48899 4.57513,-19.59971 5.51316,-23.42457 2.02539,-8.25858 0.73657,-7.67582 17.32746,-7.83487 6.3784,-0.0611 12.64014,-0.24983 13.91499,-0.41929 1.27484,-0.16947 9.89738,-0.52491 19.16118,-0.78989 l 16.8433,-0.48176 c -0.14359,2.30019 -0.0872,5.08887 -0.85335,7.0672 -0.47276,3.69241 -0.42008,7.95881 -1.1108,11.58948 -0.61987,3.18711 -1.3292,7.88085 -1.57627,10.43053 -0.24707,2.54969 -0.61393,6.20038 -0.81523,8.11264 -0.2013,1.91227 -0.55648,5.91064 -0.78928,8.88527 -0.23281,2.97463 -0.74289,7.49453 -1.13351,10.04422 -0.39062,2.54968 -0.77334,6.63498 -0.85049,9.07843 -0.0771,2.44345 -1.20729,28.87844 -0.61632,29.47692 0.53577,0.54257 11.22479,1.24147 22.34818,1.46124 l 8.11264,0.16028 c 0,0 -1.95143,-22.89117 -2.00822,-25.64442 -0.0422,-2.04358 -0.7633,-10.88176 -1.04032,-14.91877 -0.5827,-8.49163 -1.72754,-21.01875 -2.44852,-26.79202 l -0.49943,-3.99938 2.99824,-0.74742 c 7.44172,-1.85513 17.20401,-3.97021 20.38247,-4.41604 1.91227,-0.26823 3.99837,-0.67851 4.6358,-0.91174 0.63742,-0.23324 1.85431,-0.54248 2.70421,-0.6872 0.84989,-0.14473 3.80521,-0.796 6.56737,-1.44727 2.76216,-0.65127 6.06516,-1.37866 7.34001,-1.61643 1.27484,-0.23777 3.70863,-0.80096 5.40842,-1.25154 5.49438,-1.45644 8.11016,-1.61568 8.14058,-0.4956 0.0154,0.56586 0.12492,16.84847 0.24348,36.18359 0.11855,19.33511 -0.35678,35.86446 -0.13131,36.49856 2.57777,7.24969 7.15069,8.51597 11.30236,6.37682 3.74539,-1.92981 4.2877,-17.22124 4.97411,-25.91908 0.11865,-1.5035 -1.95877,-41.32101 -1.70763,-41.72736 m -64.5164,79.80683 c -0.28842,-0.75158 -1.33236,-0.93027 -3.69158,-0.63186 -1.80919,0.22884 -11.19926,0.62604 -20.86682,0.88267 l -17.57738,0.4666 -0.0952,-7.20868 c -0.28974,-21.94852 0.27225,-50.01331 1.2583,-62.8382 0.95804,-12.46038 1.24685,-15.72615 1.60946,-18.19899 l 0.40271,-2.74634 -21.78748,-0.94105 c -11.9831,-0.51758 -21.99811,-0.73053 -22.25556,-0.47323 -0.93701,0.93647 -2.08996,21.2685 -1.24579,21.9691 0.4444,0.36882 2.36576,0.78141 4.26969,0.91686 l 3.46169,0.24628 -0.0531,8.11264 c -0.0775,11.84085 -1.23961,67.45866 -1.5417,73.78637 -0.142,2.97463 -0.0751,6.36136 0.14867,7.52605 l 0.40685,2.11763 38.76494,0.20026 38.76495,0.20028 0.21472,-11.16923 c 0.1181,-6.14306 0.0338,-11.64079 -0.1874,-12.21716 z m 74.91799,18.03746 c 3.38009,-1.14573 9.69929,-4.097 15.46914,-7.22462 2.64047,-1.43129 9.70295,-8.56629 12.04703,-12.17072 5.12722,-7.88401 8.53571,-17.17915 9.91449,-27.03736 0.88923,-6.35798 0.30052,-43.38747 -0.69962,-44.00559 -0.27526,-0.17012 -2.56786,0.16879 -5.09469,0.75313 -2.52682,0.58433 -9.28796,1.97179 -15.02476,3.08324 -16.52022,3.20063 -16.06179,2.98912 -16.58159,7.65054 -0.24204,2.17061 -0.79069,10.53937 -1.21923,18.59724 -0.8942,16.81359 -1.93832,24.61277 -3.67079,27.41924 -4.87999,7.90521 -12.03627,10.49948 -19.29228,6.99376 -3.22453,-1.55793 -6.54851,-5.20972 -7.44861,-8.18319 -0.95002,-3.13839 -2.7881,-26.39628 -3.26134,-41.2668 -0.26371,-8.28648 -0.59533,-15.19529 -0.73695,-15.3529 -0.31016,-0.34521 -26.0031,1.32196 -32.00611,2.07682 l -4.24947,0.53435 0.0149,7.33665 c 0.0203,9.99325 1.96956,39.98037 2.237,42.10511 0.8987,7.14014 2.02615,11.61736 3.80021,15.09104 6.57614,12.87639 15.0654,19.60667 29.87525,23.6851 5.93476,1.63435 7.79537,1.78043 19.3158,1.5165 9.31438,-0.21339 13.78905,-0.6448 16.61159,-1.60154 z M 376.63329,233.8825 v -10.21106 l 10.43054,-0.34907 c 20.63012,-0.69041 34.41963,-7.44921 45.7455,-17.8001 8.18521,-7.48059 10.30492,-25.21725 4.95696,-37.54908 -7.37606,-17.00842 -20.29244,-20.34534 -36.40877,-23.10319 -4.60109,-0.78734 -24.90704,-0.6024 -37.47266,0.28431 -3.61205,0.25488 -10.56574,1.1421 -15.45264,1.97158 -4.8869,0.82947 -10.13676,1.69681 -11.66637,1.92739 -2.68806,0.40522 -2.83982,0.60623 -4.5358,6.00763 -0.96508,3.07362 -2.38578,7.32681 -3.1571,9.45155 -1.41481,3.89731 -3.03479,9.55345 -3.04275,10.62369 -0.007,0.91158 3.23045,0.68055 7.38862,-0.52731 2.09562,-0.60873 5.02283,-1.21718 6.5049,-1.35211 2.6745,-0.24348 2.6944,-0.2222 2.65931,2.84521 -0.0377,3.29645 -0.9401,13.40645 -1.48271,16.61159 -0.17985,1.06237 -0.52623,5.75611 -0.76971,10.43054 -0.24349,4.67442 -0.86249,11.80195 -1.37557,15.83896 -0.51309,4.037 -0.93748,10.28466 -0.94312,13.88369 l -0.0102,6.5437 3.17939,0.54506 c 1.74866,0.29978 8.00698,1.13904 13.90738,1.86502 5.90039,0.72598 12.29256,1.58202 14.20483,1.90232 1.91226,0.32031 4.34605,0.53475 5.40842,0.47655 l 1.93158,-0.1058 z m 2.41594,-36.80034 c -0.25078,-3.04017 -0.68167,-10.97931 -0.95756,-17.64255 l -0.5016,-12.11499 2.91117,-0.54614 c 4.50891,-0.84587 15.20578,0.25866 20.20552,2.08637 5.53733,2.02425 8.3321,4.8274 9.82497,9.85444 1.23805,4.16896 1.07413,5.75999 -1.09237,10.60244 -3.11691,6.96677 -12.82826,11.87578 -25.57538,12.92815 l -4.3588,0.35985 z m 15.74092,-6.27988 c 4.68625,-0.78852 8.65648,-5.41532 7.92597,-9.23671 -0.62024,-3.24459 -9.71663,-6.73155 -14.45687,-5.54182 -1.93452,0.48553 -1.96806,0.61782 -1.96806,7.76258 0,8.73517 -0.29096,8.49496 8.49896,7.01595 z m 127.74527,60.42843 c -0.20228,-0.32723 -0.68084,-0.40148 -1.06345,-0.16498 -0.40162,0.24817 -0.69931,-4.89186 -0.70402,-12.15636 -0.0161,-24.49025 -1.03556,-58.9477 -1.7579,-59.416 -0.40022,-0.25945 -2.72445,-0.32394 -5.16496,-0.1433 l -4.43739,0.32841 -0.20243,-8.35564 c -0.43761,-18.06964 -0.25249,-26.7192 0.56124,-26.21629 0.34475,0.21307 3.21315,0.58229 6.37422,0.82048 3.16107,0.23818 8.18117,0.61793 11.1558,0.84389 10.69903,0.81269 22.42874,2.03182 23.56528,2.44926 0.63742,0.23411 2.55278,0.35962 4.25628,0.27891 1.7035,-0.0807 5.35419,0.2265 8.11264,0.68268 2.75845,0.45617 7.27526,1.01759 10.03741,1.24759 2.76216,0.23 6.06517,0.59676 7.34001,0.81502 1.27484,0.21827 3.59351,0.36089 5.15261,0.31696 1.55909,-0.0439 3.09053,0.33394 3.40305,0.83973 0.38223,0.61835 2.41077,2.56647 3.11418,3.92676 0.70348,1.36031 1.75542,2.94972 2.33775,3.53204 0.58233,0.58231 12.33422,18.49654 15.24009,23.67457 0.94199,1.67851 1.30683,-12.44978 2.00915,-20.84552 0.8876,-10.61114 0.42982,-11.69271 5.59409,-12.22781 8.15892,-0.84537 14.4075,-1.21647 28.92997,-1.71811 17.11404,-0.59115 15.24597,-1.66693 16.25472,9.36104 0.79125,8.65023 0.46844,58.55058 0.0645,67.99162 -0.76707,17.9281 0.83282,17.67282 -4.51766,17.63478 -1.27947,0.0852 -38.12027,4.65698 -40.88243,5.09785 -2.76216,0.44087 -5.46104,0.80857 -5.99748,0.81712 -0.53644,0.009 -2.25161,-1.97957 -3.81148,-4.41803 -1.55986,-2.43846 -3.14074,-4.78533 -3.51308,-5.21527 -0.59801,-0.69058 -2.48849,-3.54612 -4.83482,-7.30295 -0.42495,-0.68042 -1.55492,-2.32664 -2.51105,-3.65827 -0.95614,-1.33162 -6.05296,-9.31013 -6.34107,-9.5226 -0.28812,-0.21247 -1.81909,-2.50336 -3.40206,-5.09086 -1.58304,-2.5875 -3.89228,-5.8905 -5.13166,-7.34 l -2.25346,-2.63547 -0.004,4.24948 c -0.002,2.33721 3.15435,41.60494 -0.14363,41.0069 -3.29806,-0.59804 -20.62897,0.36332 -28.50271,0.46928 -5.73679,0.0772 -10.60437,0.18852 -10.81685,0.24735 -1.60916,0.44565 -17.2205,0.26353 -17.50954,-0.20426 z m 21.3727,-7.91193 c 19.7831,-3.12382 26.69583,-4.37294 27.25113,-4.92425 0.32744,-0.32505 0.0776,-8.56322 -0.55514,-18.30704 -1.32429,-20.39326 -1.66294,-37.03186 -0.75363,-37.03186 0.34483,0 3.17599,3.303 6.29162,7.34001 3.11557,4.037 6.2642,8.08217 6.99696,8.98927 0.73277,0.90709 1.95723,2.51573 2.72106,3.57475 0.76382,1.05902 3.8253,5.01059 6.80318,8.78127 2.97795,3.77068 6.00366,7.64172 6.72391,8.60232 0.72017,0.96059 2.17859,2.78228 3.24096,4.0482 1.06236,1.26592 2.62694,3.20245 3.47684,4.3034 0.8499,1.10095 1.89295,2.40842 2.3179,2.90548 0.42494,0.49707 1.98952,2.55492 3.47684,4.573 1.48732,2.0181 3.39958,3.85454 4.24948,4.08101 0.84989,0.22646 9.71585,0.31373 19.70212,0.19391 l 18.15685,-0.21784 -0.002,-20.86107 c -0.002,-19.09185 -0.54903,-33.62042 -1.52726,-40.56318 -0.20954,-1.48732 -0.73555,-6.18106 -1.16892,-10.43054 -0.57993,-5.68672 -1.13159,-7.98127 -2.08981,-8.69211 -1.18553,-0.8795 -7.1752,-1.18504 -25.92389,-1.32239 l -4.05632,-0.0297 -0.92454,10.04422 c -0.50846,5.52432 -1.15307,15.17257 -1.43238,21.44054 -0.27938,6.26798 -0.73253,11.37459 -1.00705,11.34801 -0.27459,-0.0266 -2.5853,-2.48548 -5.13499,-5.46425 -2.54968,-2.97877 -6.31781,-7.21616 -8.37363,-9.41643 -2.05582,-2.20027 -4.66345,-5.22738 -5.79474,-6.72692 -1.13129,-1.49953 -4.02255,-4.80253 -6.42505,-7.34 -2.4025,-2.53747 -6.24928,-6.87194 -8.54833,-9.63215 -3.8484,-4.6203 -4.48281,-5.06095 -7.99396,-5.55258 -5.21488,-0.73019 -36.16915,-2.17728 -46.57334,-2.17728 h -8.47763 l -1.3273,7.37181 c -0.73006,4.0545 -1.12882,7.57035 -0.88621,7.813 0.24268,0.24264 3.79556,0.69487 7.89537,1.00495 5.06043,0.38274 7.67834,0.91316 8.15235,1.65175 0.75378,1.17463 0.44125,5.75781 -1.2597,18.4722 -0.59693,4.46195 -1.64207,14.18489 -2.32253,21.60654 -0.68046,7.42165 -1.35141,13.67997 -1.49087,13.90738 -0.13954,0.22741 -0.48034,3.54263 -0.75733,7.36716 -0.27699,3.82453 -0.69815,7.96355 -0.93589,9.19783 l -0.43229,2.24415 5.30288,-0.44577 c 2.91661,-0.24517 8.95357,-1.02222 13.41552,-1.72678 z m -72.57189,2.63495 c -4.14416,0.055 -10.56424,-0.0925 -13.49281,0.006 l -5.32467,0.17959 0.4517,-2.95459 c 0.24843,-1.62502 0.81003,-5.04069 1.24799,-7.59037 0.43796,-2.54969 0.9872,-6.02653 1.22055,-7.72632 0.23335,-1.69979 0.75355,-4.48127 1.15599,-6.18106 0.40245,-1.69979 1.08833,-5.52432 1.52418,-8.49895 0.89696,-6.12164 1.34706,-8.62766 2.39631,-13.34223 0.4037,-1.8139 0.9115,-4.59538 1.12845,-6.18105 0.38392,-2.80612 1.24567,-7.70378 1.56085,-8.87096 0.0861,-0.31871 0.19994,-0.92715 0.25306,-1.3521 0.0531,-0.42495 0.62358,-0.77263 1.26769,-0.77263 1.56644,0 7.95667,3.93774 12.17511,3.68916 7.22919,-0.426 14.51767,-3.37859 18.4514,-6.24145 1.12821,-0.82107 2.39071,-1.28309 2.80555,-1.0267 0.41481,0.25639 0.99181,3.16573 1.28209,6.46521 0.68718,7.8102 2.63073,24.77419 3.12159,27.24643 0.211,1.06237 0.73863,5.40842 1.17254,9.6579 1.09892,10.76222 1.41129,13.3401 2.16051,17.83074 1.06639,6.39093 1.29355,6.26586 -11.23971,6.18866 -6.05454,-0.0373 -19.46343,-0.57673 -23.31837,-0.52554 z m 24.3787,-8.53118 c -10e-4,-0.95613 -0.0418,-6.42509 -0.44099,-11.09952 -0.39916,-4.67442 -0.91355,-11.45427 -1.1431,-15.06632 -1.04299,-16.41238 -1.48007,-20.86107 -2.0496,-20.86107 -0.33632,0 -1.59025,0.37856 -2.78652,0.84124 -4.68006,1.81011 -11.7479,2.45424 -16.11706,1.46883 -2.14209,-0.48311 -2.83415,-0.34586 -3.35511,0.66537 -0.64677,1.25545 -1.18483,7.7565 -2.02387,24.453 -0.23489,4.67442 -0.85543,18.18545 -0.53688,18.69256 0.64533,1.02733 28.45574,2.62219 28.45313,0.90591 z m -21.80105,-56.92768 c -11.99055,-2.98568 -18.87104,-11.55554 -18.86225,-23.49354 0.009,-11.78933 7.80578,-21.17838 19.14522,-23.0541 7.13985,-1.18106 15.8101,1.2095 20.44696,5.6376 9.97218,9.52323 10.33664,24.62485 0.82792,34.30636 -6.3614,6.477 -13.40344,8.63415 -21.55785,6.60368 z m 9.08285,-8.94867 c 6.69227,-2.39035 11.30232,-9.13478 10.45456,-15.29485 -1.32309,-9.61413 -9.24452,-15.10388 -18.72754,-12.97869 -4.63794,1.03938 -9.33902,5.33607 -10.48184,9.58014 -1.97629,7.3394 1.15982,15.27218 6.88022,17.68652 5.7204,2.41435 7.55521,2.54967 11.8746,1.00688 z m -227.0338,-38.32534 c 0.17134,-1.48732 0.95838,-4.87724 1.74899,-7.53316"
       style="fill:#000000"
       inkscape:transform-center-x="-272.32073"
       inkscape:transform-center-y="-67.399841"
       inkscape:connector-curvature="0" />
    <path
       inkscape:export-ydpi="27.906879"
       inkscape:export-xdpi="27.906879"
       inkscape:export-filename="/var/www/mislupins/imagenes/logo2.png"
       id="path4215"
       d="m 262.7845,125.63795 -5.91523,21.44271"
       style="fill:none;fill-rule:evenodd;stroke:#000000;stroke-width:0.77263212px;stroke-linecap:butt;stroke-linejoin:miter;stroke-opacity:1"
       inkscape:transform-center-x="-153.07752"
       inkscape:transform-center-y="-126.64424"
       inkscape:connector-curvature="0" />
    <path
       inkscape:export-ydpi="27.906879"
       inkscape:export-xdpi="27.906879"
       inkscape:export-filename="/var/www/mislupins/imagenes/logo2.png"
       sodipodi:nodetypes="cccc"
       id="path4217"
       d="m 257.70504,147.63598 17.68031,-17.64071 -11.25992,-0.60965 z"
       style="fill:#d40000;fill-opacity:1;fill-rule:evenodd;stroke:none;stroke-width:1px;stroke-linecap:butt;stroke-linejoin:miter;stroke-opacity:1"
       inkscape:transform-center-x="-159.79583"
       inkscape:transform-center-y="-124.49275"
       inkscape:connector-curvature="0" />
    <ellipse
       inkscape:export-ydpi="27.906879"
       inkscape:export-xdpi="27.906879"
       inkscape:export-filename="/var/www/mislupins/imagenes/logo2.png"
       id="path4219"
       style="fill:#d40000;fill-opacity:1;stroke:#000000;stroke-width:1.39073789;stroke-miterlimit:4;stroke-dasharray:none;stroke-opacity:1"
       inkscape:transform-center-x="-371.94101"
       inkscape:transform-center-y="-105.94094"
       cx="478.69037"
       cy="157.06261"
       rx="10.351653"
       ry="9.9819508" />
    <rect
       ry="18.111965"
       y="222.70892"
       x="574.71991"
       height="48.298573"
       width="81.503838"
       id="rect4780"
       style="fill:url(#radialGradient833);fill-opacity:1;stroke:#000000;stroke-width:17.50699997;stroke-linecap:butt;stroke-linejoin:miter;stroke-miterlimit:4;stroke-dasharray:none;stroke-opacity:1" />
    <rect
       style="fill:#000000;fill-opacity:1;stroke:#fffff6;stroke-width:8.30662441;stroke-linecap:butt;stroke-linejoin:miter;stroke-miterlimit:4;stroke-dasharray:none;stroke-opacity:1"
       id="rect4770"
       width="81.503838"
       height="48.298573"
       x="574.71991"
       y="222.70892"
       ry="18.111965" />
    <text
       xml:space="preserve"
       style="font-style:normal;font-variant:normal;font-weight:normal;font-stretch:normal;font-size:31.46746635px;line-height:1.25;font-family:Exo;-inkscape-font-specification:Exo;letter-spacing:3.26474857px;word-spacing:0px;fill:#ffffff;fill-opacity:1;stroke:none;stroke-width:0.78668666"
       x="586.69165"
       y="255.91418"
       id="text4768"><tspan
         sodipodi:role="line"
         id="tspan4766"
         x="586.69165"
         y="255.91418"
         style="stroke-width:0.78668666">mis</tspan></text>
  </g>
</svg>
